# xmcd CD database file
#
# Track frame offsets:
#	150
#	15476
#	28712
#	41112
#	63961
#	81655
#	105479
#	120665
#	136409
#	149088
#	165668
#	186427
#
# Disc length: 2667 seconds
#
# Revision: 0
# Processed by: cddbd v1.5.2PL0 Copyright (c) Steve Scherf et al.
# Submitted via: jetAudio 7
#
DISCID=ac0a690c
DTITLE=徐淸原  - 在一天的開始
DYEAR=1900
DGENRE=장르 없음
TTITLE0=在一天的開始
TTITLE1=慈心相繫
TTITLE2=皆大歡喜
TTITLE3=禮佛
TTITLE4=我們的學校
TTITLE5=三寳歌
TTITLE6=我家在這裡
TTITLE7=菩提本無樹
TTITLE8=友誼歌
TTITLE9=佛學研讀班驪歌
TTITLE10=禮讚三寳
TTITLE11=香光行
EXTD=
EXTT0=
EXTT1=
EXTT2=
EXTT3=
EXTT4=
EXTT5=
EXTT6=
EXTT7=
EXTT8=
EXTT9=
EXTT10=
EXTT11=
PLAYORDER=
